<?xml version="1.0" encoding="utf-8"?>
<!-- Generator: Adobe Illustrator 28.1.0, SVG Export Plug-In . SVG Version: 6.00 Build 0)  -->
<svg version="1.1" id="Calque_1" xmlns="http://www.w3.org/2000/svg" xmlns:xlink="http://www.w3.org/1999/xlink" x="0px" y="0px"
	 viewBox="0 0 16 16" style="enable-background:new 0 0 16 16;" xml:space="preserve">
<path d="M13.6,4.3c0-0.5-0.4-1-1-1H3.8c-0.6,0-1,0.4-1,1c0,0.6,0.4,1,1,1h8.9C13.2,5.3,13.6,4.9,13.6,4.3L13.6,4.3z"/>
<path d="M13.6,11.7c0-0.5-0.4-1-1-1H3.8c-0.6,0-1,0.4-1,1c0,0.6,0.4,1,1,1h8.9C13.2,12.7,13.6,12.2,13.6,11.7L13.6,11.7z"/>
<path d="M13.6,8c0-0.5-0.4-1-1-1H3.8c-0.6,0-1,0.4-1,1c0,0.6,0.4,1,1,1h8.9C13.2,9,13.6,8.6,13.6,8L13.6,8z"/>
<path d="M-0.5,7.5"/>
</svg>
