<?xml version="1.0" encoding="UTF-8"?>
<svg id="Calque_1" data-name="Calque 1" xmlns="http://www.w3.org/2000/svg" version="1.1" viewBox="0 0 20 20">
  <defs>
    <style>
      .cls-1 {
        fill: #fec6ff;
      }

      .cls-1, .cls-2 {
        stroke-width: 0px;
      }

      .cls-2 {
        fill: #E53474;
      }
    </style>
  </defs>
  <circle class="cls-1" cx="10" cy="10" r="9.9"/>
  <path class="cls-2" d="M13.2,8.9c.3-.4.1-.9-.3-1.1-.4-.2-.9-.1-1.2.3l-1.2,1.9-1.5-6.3c-.1-.5-.5-.7-1-.6-.5.1-.8.5-.6,1l1.5,6.3-1.8-1.1c-.4-.2-.9-.1-1.2.3-.3.4-.1.9.3,1.1l4.3,2.6,2.7-4.3ZM4.3,10.9c.5-.1.9.1,1,.6l.8,3.4,9.2-2.1-.7-3.2c-.1-.5.1-.9.6-1,.5-.1.9.1,1,.6l.9,3.8c.1.6-.3,1.2-.8,1.3l-10.3,2.4c-.6.1-1.2-.2-1.3-.8l-.9-3.9c0-.4.1-.9.6-1Z"/>
</svg>