<?xml version="1.0" encoding="utf-8"?>
<!-- Generator: Adobe Illustrator 28.1.0, SVG Export Plug-In . SVG Version: 6.00 Build 0)  -->
<svg version="1.1" id="Calque_1" xmlns="http://www.w3.org/2000/svg" xmlns:xlink="http://www.w3.org/1999/xlink" x="0px" y="0px"
	 viewBox="0 0 16 16" style="enable-background:new 0 0 16 16;" xml:space="preserve">
<path d="M12.2,8.6c0.4-0.4,0.4-1,0-1.4s-1-0.4-1.4,0L9,9.1V1.2c0-0.6-0.4-1-1-1s-1,0.4-1,1v7.9L5.2,7.3c-0.4-0.4-1-0.4-1.4,0
	s-0.4,1,0,1.4L8,12.9L12.2,8.6z M1.5,8.6L1.5,8.6c0.6,0,1,0.4,1,1v4.2h11v-4c0-0.6,0.4-1,1-1s1,0.4,1,1v4.7c0,0.7-0.6,1.3-1.3,1.3
	H1.8c-0.7,0-1.3-0.6-1.3-1.3V9.6C0.5,9.1,0.9,8.6,1.5,8.6z"/>
</svg>
