<?xml version="1.0" encoding="UTF-8"?>
<svg id="Calque_1" data-name="Calque 1" xmlns="http://www.w3.org/2000/svg" version="1.1" xmlns:xlink="http://www.w3.org/1999/xlink" viewBox="0 0 20 20">
  <defs>
    <style>
      .cls-1 {
        fill: #fec6ff;
      }

      .cls-1, .cls-2, .cls-3 {
        stroke-width: 0px;
      }

      .cls-2 {
        fill: none;
      }

      .cls-4 {
        clip-path: url(#clippath);
      }

      .cls-3 {
        fill: #E53474;
      }
    </style>
    <clipPath id="clippath">
      <rect class="cls-2" x="4" y="4.3" width="11.9" height="11.9" transform="translate(-2.1 2.5) rotate(-13)"/>
    </clipPath>
  </defs>
  <circle class="cls-1" cx="10" cy="10" r="9.9"/>
  <g class="cls-4">
    <path class="cls-3" d="M10.1,4.1c-.4.1-.7.5-.6.9.1.4.5.7.9.6l1.9-.4-3.5,5.6c-.2.4-.1.8.2,1,.4.2.8.1,1-.2l3.5-5.6.4,1.9c.1.4.5.7.9.6.4-.1.7-.5.6-.9l-.8-3.6c-.1-.4-.5-.7-.9-.6l-3.6.8ZM4.8,6.1c-1,.2-1.6,1.2-1.4,2.2l1.7,7.3c.2,1,1.2,1.6,2.2,1.4l7.3-1.7c1-.2,1.6-1.2,1.4-2.2l-.6-2.5c-.1-.4-.5-.7-.9-.6-.4.1-.7.5-.6.9l.6,2.5c0,.2,0,.4-.3.4l-7.3,1.7c-.2,0-.4,0-.4-.3l-1.7-7.3c0-.2,0-.4.3-.4l2.5-.6c.4-.1.7-.5.6-.9-.1-.4-.5-.7-.9-.6l-2.5.6Z"/>
  </g>
</svg>